<mxfile host="app.diagrams.net" modified="2022-09-21T18:32:55.192Z" agent="5.0 (Macintosh)" etag="1nlPbF5Gzf8IRjCd0QRC" version="20.3.3" type="github">
  <diagram id="hvst6pSnWHt4odJIvTWv" name="Sign up">
    <mxGraphModel dx="946" dy="640" grid="1" gridSize="10" guides="1" tooltips="1" connect="1" arrows="1" fold="1" page="1" pageScale="1" pageWidth="850" pageHeight="1100" math="0" shadow="0">
      <root>
        <mxCell id="0" />
        <mxCell id="1" parent="0" />
        <mxCell id="mSLfejN7XZIOxlqGf1XC-11" style="edgeStyle=orthogonalEdgeStyle;rounded=0;orthogonalLoop=1;jettySize=auto;html=1;entryX=0;entryY=0.5;entryDx=0;entryDy=0;fontSize=18;" parent="1" source="mSLfejN7XZIOxlqGf1XC-7" target="mSLfejN7XZIOxlqGf1XC-8" edge="1">
          <mxGeometry relative="1" as="geometry" />
        </mxCell>
        <mxCell id="mSLfejN7XZIOxlqGf1XC-7" value="React app sends request to create user" style="rounded=1;whiteSpace=wrap;html=1;fontSize=18;" parent="1" vertex="1">
          <mxGeometry x="40" y="170" width="150" height="100" as="geometry" />
        </mxCell>
        <mxCell id="mSLfejN7XZIOxlqGf1XC-12" style="edgeStyle=orthogonalEdgeStyle;rounded=0;orthogonalLoop=1;jettySize=auto;html=1;entryX=0;entryY=0.389;entryDx=0;entryDy=0;entryPerimeter=0;fontSize=18;" parent="1" source="mSLfejN7XZIOxlqGf1XC-8" target="mSLfejN7XZIOxlqGf1XC-9" edge="1">
          <mxGeometry relative="1" as="geometry" />
        </mxCell>
        <mxCell id="mSLfejN7XZIOxlqGf1XC-8" value="Lambda function in aws accepts user details" style="rounded=1;whiteSpace=wrap;html=1;fontSize=18;" parent="1" vertex="1">
          <mxGeometry x="320" y="170" width="150" height="100" as="geometry" />
        </mxCell>
        <mxCell id="mSLfejN7XZIOxlqGf1XC-13" style="edgeStyle=orthogonalEdgeStyle;rounded=0;orthogonalLoop=1;jettySize=auto;html=1;entryX=0.558;entryY=0.004;entryDx=0;entryDy=0;entryPerimeter=0;fontSize=18;" parent="1" source="mSLfejN7XZIOxlqGf1XC-9" target="mSLfejN7XZIOxlqGf1XC-10" edge="1">
          <mxGeometry relative="1" as="geometry">
            <Array as="points">
              <mxPoint x="700" y="390" />
              <mxPoint x="705" y="390" />
            </Array>
          </mxGeometry>
        </mxCell>
        <mxCell id="mSLfejN7XZIOxlqGf1XC-9" value="&lt;div&gt;Lambda contacts aws cognito via cognito service provider in aws-sdk.&lt;br&gt;&lt;/div&gt;&lt;div&gt;cognito and creates user in cognito pool&lt;br&gt;&lt;/div&gt;" style="rounded=1;whiteSpace=wrap;html=1;fontSize=18;" parent="1" vertex="1">
          <mxGeometry x="570" y="150" width="260" height="180" as="geometry" />
        </mxCell>
        <mxCell id="mSLfejN7XZIOxlqGf1XC-10" value="Upon successful creation of user in cognito, lambda contacts RDS and creates a copy of the user in MySQL database. This way RDS remains in sync with cognito." style="rounded=1;whiteSpace=wrap;html=1;fontSize=18;" parent="1" vertex="1">
          <mxGeometry x="560" y="450" width="260" height="230" as="geometry" />
        </mxCell>
        <mxCell id="mSLfejN7XZIOxlqGf1XC-14" value="Sign up Flow in AWS" style="rounded=0;whiteSpace=wrap;html=1;fontSize=18;" parent="1" vertex="1">
          <mxGeometry x="260" y="30" width="380" height="60" as="geometry" />
        </mxCell>
      </root>
    </mxGraphModel>
  </diagram>
</mxfile>
